<?xml version="1.0" encoding="UTF-8"?>
<svg id="_レイヤー_1" data-name="レイヤー_1" xmlns="http://www.w3.org/2000/svg" viewBox="0 0 1011.81 233.88">
  <defs>
    <style>
      .cls-1 {
        fill: none;
      }

      .cls-2 {
        fill: #2eacd8;
      }
    </style>
  </defs>
  <rect class="cls-1" x="0" y="0" width="1011.81" height="233.88"/>
  <path class="cls-2" d="M176.2,75.6c0,38.2-25.2,68-54.2,68-13.2,0-21.4-4-27.4-13.6l-3,11.4c-6.4,24-23.6,38.4-45.8,38.4s-37.2-13.6-37.2-32.2c0-2.4.2-4.6,1-8.4,2.4.4,4.8.6,7,.6,11.6,0,19.2-5,22.6-14.8l8.8-25.6c-6.2,2-12,3.2-17.6,3.2-16,0-26.6-10.2-26.6-25.6,0-32.2,39.8-57.6,91.8-57.6s80.6,20.8,80.6,56.2ZM82,29.2c-1.2-.2-2.8-.4-4.6-.4-18.6,0-35.6,21-35.6,44.2,0,9.4,3,16,8.8,18,11.4-44,18.6-57.4,30.6-58l.8-3.8ZM127.8,49.2c0-7.4-1.6-11.4-4.6-11.4-2.2,0-4,3.4-7.4,15.4l-20.2,69.2c13.6.8,32.2-42.8,32.2-73.2Z"/>
  <path class="cls-2" d="M306.4,105c-5.4,30.2-18.8,67.4-41.4,67.4-4.8,0-9.4-1.6-13.4-4.4-10.6,9.8-27.4,16.4-41.6,16.4-28.2,0-50.6-16.8-50.6-50.6,1.8-43.6,28-73.2,65-73.2,31.4,0,51,17.8,51,46.4,0,8-1.6,16.8-4.6,26.2,2.4,2.2,5.6,2.2,6.8,2.2,5.6,0,12-4.6,19.4-30.4h9.4ZM246.8,85.8c-2-1.6-4.2-2.4-6.8-2.4-13.6,0-28.8,29.2-28.8,54.8,0,9.4,2.8,14.4,7.2,14.4s10.2-5.6,12.4-12.4c-1.4-3.8-2.2-9.2-2.2-15,0-18,7.2-33.6,18.2-39.4Z"/>
  <path class="cls-2" d="M452.59,105c-5.4,30.2-18.8,67.4-41.4,67.4-5,0-10.2-2-14.2-5.2-7.4,7.2-16.4,11.8-26.6,11.8-13.2,0-22.2-10.4-22.2-25.4,0-13.4,6.2-22.2,15.8-22.2h1.8c4.2-8.8,7-19.6,7-26.6,0-4.4-1.2-7.4-4.2-7.4-6.8,0-13.6,12.8-18.8,34l-9,37c-1.6,6.4-3.4,13.8-3.4,20,0,7,2.4,12.6,10.6,14l-3.2,24.2h-68.4l-7.6-32.8c14.4-10.6,28-34.2,34.6-60h-9.6l-7.4-15.8,14.6-50.8h56.4v6.4c-16.6,27.4-22.8,54.8-22.8,54.8h6.2c17.2-58.6,40-64,53.4-64,19.4,0,29.4,17.8,29.4,36.8,0,8.8-2.2,20.6-6.4,32.2,2.4,2,5.4,2,6.6,2,5.6,0,12-4.6,19.4-30.4h9.4Z"/>
  <path class="cls-2" d="M619.79,64l-15.4,56.2c-11.4,42-30.8,61.2-62,61.2s-49.2-14.6-49.2-37.6c0-20,14.8-37.2,32-37.2,10.4,0,16.6,5.4,16.6,14.2,0,2.2-.6,5-1.6,8l4.6,1.2,11.6-41.2c6.2-22.2,14.2-32.4,25.2-32l.8-2.2c-5-1.6-9.8-2.4-14.2-2.4-15.8,0-27.4,11.4-27.4,26.6,0,6.4,2.2,11.8,6.2,15.2l-2.6,7.8c-2.8.4-4.4.4-7.2.4-23.8,0-41-17.4-41-41.4s18.2-42.4,43.8-42.4c20.4,0,30.8,8.4,57.8,21.4,8.4,4,16.4,6,23,6,8.4,0,14.2-3.4,13.8-8-3,2.4-7.2,3.6-12.6,3.6-10,0-22.6-4.4-34-11.8,5.2-7.8,16.4-12.8,28.4-12.8,16.4,0,27.6,9.4,27.6,23.2s-10.2,23.2-24.2,24ZM541.79,137.2c-1.2-1-2.6-1.6-4.2-1.6-6.4,0-13.6,13.4-13.6,25.2,0,4.2,1.2,6.6,3.4,6.6,4.6,0,10.2-11.8,14.4-30.2Z"/>
  <path class="cls-2" d="M758.99,105c-5.4,30.2-18.8,67.4-41.4,67.4-4.8,0-9.4-1.6-13.4-4.4-10.6,9.8-27.4,16.4-41.6,16.4-28.2,0-50.6-16.8-50.6-50.6,1.8-43.6,28-73.2,65-73.2,31.4,0,51,17.8,51,46.4,0,8-1.6,16.8-4.6,26.2,2.4,2.2,5.6,2.2,6.8,2.2,5.6,0,12-4.6,19.4-30.4h9.4ZM699.39,85.8c-2-1.6-4.2-2.4-6.8-2.4-13.6,0-28.8,29.2-28.8,54.8,0,9.4,2.8,14.4,7.2,14.4s10.2-5.6,12.4-12.4c-1.4-3.8-2.2-9.2-2.2-15,0-18,7.2-33.6,18.2-39.4Z"/>
  <path class="cls-2" d="M873.79,87.8c0,12.6-9,28.4-9,39.4,0,4.6,2,7,5.6,7,4,0,9.8-3.4,17.2-29.2h9.4c-8.4,47.4-30.2,77.2-54.4,77.2-17.4,0-31.2-11.8-31.2-33.8,0-14,3-26.2,10.6-43.4-.8-1.6-2.4-2.8-3.6-2.8-7.4,0-16.4,35.6-22.8,74.8h-55.4l-2.8-5.2c7.4-7,15.2-22.4,18.6-38h-9.4l-7.4-15.8,14.6-51h58.6v6.6c-16.6,27.4-22.8,54.8-22.8,54.8h6.2c8.8-33.6,23.6-64.6,51.4-64.6,19.4,0,26.6,11.2,26.6,24Z"/>
  <path class="cls-2" d="M883.39,163.4c5-7.8,9.8-18.6,12-29.6h-19c.4-19,5.6-39.6,17.2-52.6,10.8-12.2,27.2-19.6,45-19.6,30.2,0,46.4,15,46.4,34,0,24-18.2,39-45.6,39-3.2,0-6.4-.2-9.6-.6,1.2,10.8,8.4,17,21,17,21,0,39.4-19,46.6-46h9.4c-11.6,69.4-53.2,80.6-77.8,80.6s-40.2-14.2-45.6-22.2ZM931.99,121.6c11.2,0,17.8-19.4,17.8-30,0-4.2-1-7-3-7-6.2,0-15,20.4-16.4,36.8.6.2,1,.2,1.6.2Z"/>
</svg>